<svg width="147" height="41" viewBox="0 0 147 41" fill="none" xmlns="http://www.w3.org/2000/svg">
<g clip-path="url(#clip0_133_74)">
<path d="M85.8567 9.31465C85.2077 8.41809 84.4258 7.63915 83.578 6.92569C82.4869 6.00595 81.2623 5.30525 79.9303 4.83796C78.6047 4.37427 77.2138 4.17565 75.7989 4.20556C74.5906 4.23068 73.3945 4.41097 72.2745 4.81559C70.4113 5.489 68.7841 6.55132 67.4235 8.03209C66.4684 9.07052 65.7562 10.2387 65.231 11.5227C64.6983 12.8279 64.4109 14.2049 64.3885 15.6176C64.3761 16.3107 64.5314 16.9773 65.1332 17.4661C65.5414 17.7973 66.0248 18.0384 66.3985 18.4014C67.6882 19.6469 69.102 20.7446 70.4284 21.9468C71.3979 22.8249 72.3829 23.6904 73.3765 24.5479C74.0948 25.1646 74.7953 25.8138 75.5086 26.4319C76.8949 27.6332 78.2428 28.8812 79.6519 30.0568C80.3241 30.6183 80.3502 30.6327 80.6137 29.7771C80.9254 28.7571 81.2634 27.7431 81.5223 26.711C81.6528 26.1891 81.9822 25.7303 81.973 25.1612C81.9676 24.7934 81.8726 24.5417 81.4935 24.4429C81.3846 24.4168 81.28 24.3676 81.1747 24.335C79.6047 23.8213 80.0907 20.8276 81.9257 21.0844C82.3165 21.1388 82.7087 21.1599 83.0984 21.2009C83.1978 21.2133 83.2845 21.2102 83.3463 21.1213C83.4293 21.0016 83.3628 20.9141 83.2829 20.8276C83.0818 20.6065 82.8793 20.3803 82.6782 20.1591C81.6898 19.0839 82.0816 17.6797 83.5665 17.2685C84.311 17.2209 84.6365 16.6539 84.8627 15.943C85.3229 14.4917 85.7027 13.0089 86.2089 11.5744C86.5182 10.6974 86.3477 9.99679 85.8567 9.31465ZM82.9703 16.1296C81.4446 16.6456 80.7031 17.7976 80.8735 19.4312C80.9025 19.7101 80.905 19.8982 80.59 19.9916C79.2574 20.3809 78.888 21.9374 78.9892 23.1723C79.0378 23.7547 79.2421 24.317 79.6071 24.7727C79.942 25.1907 80.5598 25.5271 80.3699 26.1646C80.2162 26.6822 80.0181 27.1879 79.884 27.7163C79.7596 28.2118 79.5888 28.2364 79.1844 27.8904C77.3546 26.3216 75.5356 24.7332 73.7407 23.1242C72.9221 22.3887 72.0409 21.7204 71.2363 20.9672C70.4862 20.2694 69.6785 19.6374 68.9356 18.9266C68.6965 18.6972 68.6519 18.3926 68.6131 18.1083C68.41 16.5881 68.6158 15.128 69.2786 13.7333C70.3172 11.549 71.968 10.0969 74.5878 9.36976C75.9387 8.89315 77.5652 8.98836 79.1616 9.50811C80.4834 9.94005 81.5823 10.7453 82.5243 11.7737C83.1261 12.4321 83.5642 13.187 83.9271 13.9936C83.9424 14.0275 83.9729 14.057 83.9831 14.0923C84.1526 14.6099 83.4816 15.9577 82.9703 16.1296ZM85.0492 10.918C84.9508 11.2582 84.8789 11.6045 84.7642 11.9357C84.646 12.2735 84.5557 12.2831 84.3385 12.0064C84.0958 11.6987 83.8723 11.3718 83.621 11.0721C82.2489 9.46719 80.5363 8.47199 78.4667 8.00095C76.5389 7.56569 74.6963 7.80087 72.9122 8.4925C72.1445 8.79021 71.4494 9.27219 70.7616 9.77943C69.7479 10.531 69.0226 11.4841 68.44 12.5329C67.6569 13.9376 67.3736 15.2532 67.2644 16.8387C67.2569 16.9448 67.2458 17.0575 67.1808 17.1446C67.005 17.3785 66.7878 17.1018 66.6472 16.9946C66.4822 16.8697 66.3241 16.7401 66.1661 16.6105C65.8387 16.3409 65.7285 16.0088 65.7257 15.5745C65.7077 13.919 66.1958 12.394 66.9238 10.9503C67.3826 10.0412 67.9932 9.21144 68.7973 8.53935C69.1761 8.22231 69.4944 7.83791 69.8964 7.52515C70.8891 6.7577 71.9902 6.24087 73.1907 5.90609C74.7674 5.49032 76.3497 5.39578 77.9741 5.67219C80.1061 6.03769 81.8589 7.06782 83.4169 8.52069C83.9388 9.00786 84.3664 9.56599 84.8506 10.0832C85.0724 10.3285 85.1382 10.6023 85.0492 10.918Z" fill="#E35925"/>
<path d="M80.3706 12.9958C79.8574 11.4828 78.3354 10.5969 76.7044 10.9954C74.9994 11.4126 74.1006 13.3049 74.5712 14.7562C75.0718 16.292 76.6277 17.2475 78.2404 16.8049C79.9821 16.4292 80.8614 14.4413 80.3706 12.9958ZM78.0244 15.5703C77.2853 15.8159 75.9204 15.2541 75.8499 14.3797C75.5826 13.4307 76.1045 12.4842 77.0354 12.2298C77.9125 11.9882 78.8557 12.521 79.1042 13.396C79.3598 14.3047 78.8478 15.2948 78.0244 15.5703Z" fill="#E35925"/>
<path d="M75.664 18.5948C74.5962 18.8585 73.7865 20.3038 74.147 21.5078C74.5145 22.7453 76.0273 23.4013 77.0563 23.0229C78.2322 22.6788 78.933 21.3771 78.6163 20.2015C78.2677 18.9065 76.969 18.271 75.664 18.5948ZM76.716 21.8131C76.2476 21.9535 75.4977 21.5866 75.3716 21.1523C75.2188 20.6355 75.564 20.0326 76.0981 19.8733C76.5901 19.7289 77.2449 20.0137 77.3601 20.4292C77.5181 20.9829 77.1997 21.6683 76.716 21.8131Z" fill="#E35925"/>
<path d="M71.2653 14.6849C70.364 14.9089 69.6236 15.9046 70.0138 16.9468C70.2723 17.8656 71.2652 18.447 72.1459 18.1988C73.2117 17.9001 73.7672 16.9466 73.4786 15.9053C73.2342 15.0071 72.192 14.4536 71.2653 14.6849ZM71.9135 16.9552C71.6514 17.0142 71.2806 16.831 71.2248 16.6008C71.152 16.2935 71.2961 16.1015 71.583 16.0052C71.8749 15.9074 72.1066 16.0267 72.192 16.3113C72.2733 16.5725 72.1301 16.9092 71.9135 16.9552Z" fill="#E35925"/>
</g>
<path d="M3.41352 40.9999C2.92476 40.9999 2.48256 40.9276 2.06363 40.7726C1.6447 40.6177 1.28783 40.3698 0.985265 40.0392C0.682704 39.7086 0.449964 39.2954 0.27153 38.7995C0.085338 38.2933 0 37.7251 0 37.0537V24.9463C0 24.2851 0.085338 23.7066 0.263772 23.2107C0.434448 22.7149 0.674946 22.3016 0.977507 21.9814C1.28007 21.6612 1.63694 21.4132 2.05587 21.2479C2.4748 21.0826 2.92476 21 3.40576 21C3.88676 21 4.33672 21.0826 4.74789 21.2479C5.15907 21.4132 5.51593 21.6612 5.8185 21.9814C6.12106 22.3016 6.3538 22.7149 6.53223 23.2107C6.70291 23.7066 6.796 24.2851 6.796 24.9463V37.0537C6.796 37.7148 6.71067 38.2933 6.53223 38.7892C6.3538 39.2851 6.1133 39.6983 5.8185 40.0289C5.51593 40.3594 5.15907 40.597 4.74789 40.7623C4.33672 40.9173 3.89451 40.9999 3.41352 40.9999ZM5.26768 24.6673C5.26768 24.3161 5.19786 24.0165 5.07373 23.7583C4.94184 23.5103 4.78668 23.3037 4.60049 23.1384C4.42206 22.9731 4.21259 22.8492 3.99537 22.7769C3.77039 22.6942 3.57644 22.6632 3.40576 22.6632C3.21957 22.6632 3.02562 22.6942 2.80839 22.7769C2.59117 22.8595 2.38946 22.9731 2.19551 23.1384C2.00932 23.3037 1.85416 23.5103 1.72228 23.7583C1.59815 24.0165 1.53608 24.3058 1.53608 24.6673V37.3532C1.53608 37.6942 1.59815 38.0041 1.72228 38.252C1.8464 38.4999 2.00156 38.7065 2.19551 38.8718C2.38946 39.0371 2.59117 39.1611 2.80839 39.2334C3.02562 39.316 3.21957 39.3574 3.40576 39.3574C3.57644 39.3574 3.77039 39.316 3.99537 39.2334C4.22035 39.1508 4.42206 39.0371 4.60049 38.8718C4.78668 38.7065 4.94184 38.4999 5.07373 38.252C5.20562 38.0041 5.26768 37.6942 5.26768 37.3532V24.6673Z" fill="url(#paint0_linear_133_74)"/>
<path d="M16.6794 39.1715C16.8268 39.2541 16.9199 39.3678 16.9742 39.4917C17.0285 39.626 17.0518 39.843 17.0518 40.1632V40.7624H15.9734C15.6321 40.7624 15.3838 40.5971 15.2132 40.2665C15.0425 39.9359 14.9571 39.5744 14.9571 39.1921V34.3884C14.9571 33.7789 14.8175 33.2624 14.5382 32.8492C14.2589 32.436 13.9176 32.2294 13.5142 32.2294H11.8307C11.66 32.2294 11.5747 32.343 11.5747 32.5703V38.5207V38.7066C11.5747 38.8616 11.5902 38.9752 11.629 39.0475C11.66 39.1302 11.7065 39.1921 11.7764 39.2438C11.8772 39.3264 11.9936 39.4711 12.1177 39.6777C12.2419 39.874 12.3039 40.1426 12.3039 40.4731V40.7624H9.37915V40.4731C9.37915 40.1426 9.44121 39.8843 9.56534 39.6777C9.68947 39.4814 9.80584 39.3368 9.90669 39.2438C9.97652 39.1921 10.0231 39.1302 10.0541 39.0578C10.0851 38.9855 10.1006 38.8719 10.1006 38.7169C10.1006 36.3203 10.1006 34.2748 10.1006 32.6013C10.1006 30.9174 10.1006 29.5228 10.1006 28.3967C10.1006 27.281 10.1006 26.3926 10.1006 25.7521C10.1006 25.1116 10.1006 24.6158 10.1006 24.2645C10.1006 23.9133 10.1006 23.6757 10.1006 23.5414C10.1006 23.4071 10.1006 23.3038 10.1006 23.2211C10.1006 22.9939 10.0386 22.8182 9.92221 22.6943C9.82136 22.6116 9.70499 22.4773 9.58086 22.2811C9.45673 22.0848 9.39467 21.8162 9.39467 21.4753V21.2377H13.3125C13.8633 21.2377 14.3365 21.341 14.7322 21.5476C15.1278 21.7542 15.4537 22.0538 15.7019 22.436C15.9502 22.8182 16.1286 23.2831 16.2527 23.8203C16.3691 24.3575 16.4312 24.9463 16.4312 25.5972V28.3348C16.4312 29.0269 16.3226 29.6157 16.1131 30.0806C15.9036 30.5558 15.6709 30.938 15.4071 31.2376C15.7097 31.5372 15.9502 31.9608 16.1441 32.5393C16.3303 33.1075 16.4312 33.7686 16.4312 34.5021V38.7066C16.4312 38.8616 16.4622 38.9545 16.5087 39.0062C16.5553 39.0475 16.6096 39.1095 16.6794 39.1715ZM14.9571 25.1323C14.9571 24.5331 14.8175 23.9959 14.546 23.5517C14.2744 23.1075 13.9331 22.8906 13.5219 22.8906H11.854C11.7764 22.8906 11.7065 22.9112 11.6522 22.9732C11.5902 23.0145 11.5591 23.1178 11.5591 23.2625V30.3079C11.5591 30.3905 11.5902 30.4628 11.6367 30.5145C11.691 30.5661 11.7376 30.5868 11.7919 30.5868H13.4986C13.9021 30.5868 14.2434 30.4112 14.5227 30.0393C14.802 29.6777 14.9416 29.1819 14.9416 28.5724V25.1323H14.9571Z" fill="url(#paint1_linear_133_74)"/>
<path d="M22.1491 39.2231C22.25 39.3264 22.3663 39.4813 22.4905 39.6673C22.6146 39.8636 22.6767 40.1218 22.6767 40.4524V40.7623H19.6821V40.4524C19.6821 40.1218 19.7441 39.8532 19.8683 39.6569C19.9924 39.4607 20.1088 39.316 20.2096 39.2231C20.326 39.1404 20.3881 38.9958 20.4036 38.8098V23.2107C20.3881 23.0764 20.3648 22.9835 20.3337 22.9215C20.3027 22.8698 20.2562 22.8182 20.2019 22.7665C20.101 22.6839 19.9846 22.5392 19.8605 22.3326C19.7364 22.1364 19.6743 21.8678 19.6743 21.5372V21.2479H19.7364H22.6146H22.6767V21.5372C22.6767 21.8678 22.6146 22.1364 22.4905 22.3326C22.3663 22.5392 22.25 22.6735 22.1491 22.7665C22.0948 22.8182 22.056 22.8698 22.0172 22.9215C21.9862 22.9731 21.9629 23.0661 21.9474 23.2107V38.7685C21.9474 38.9441 21.9629 39.0474 21.994 39.0991C22.0327 39.1198 22.0793 39.1714 22.1491 39.2231Z" fill="url(#paint2_linear_133_74)"/>
<path d="M32.1184 40.5558C32.1184 40.7314 32.0641 40.8244 31.9632 40.8244H31.7305C31.6219 40.8244 31.5676 40.7624 31.552 40.6177C31.5365 40.4834 31.5133 40.3491 31.4745 40.2355C31.4202 40.0702 31.3503 40.0289 31.2728 40.0909C31.1874 40.1529 31.071 40.2355 30.9314 40.3388C30.6676 40.5351 30.3185 40.6797 29.8763 40.7727C29.4341 40.8657 29.0152 40.9173 28.6195 40.9173C28.1618 40.9173 27.7351 40.845 27.3239 40.6901C26.9205 40.5351 26.5637 40.2872 26.2533 39.9669C25.9508 39.6467 25.7025 39.2438 25.5318 38.7479C25.3534 38.252 25.2681 37.6735 25.2681 37.0021V24.874C25.2681 24.2128 25.3534 23.6343 25.5241 23.1385C25.6948 22.6426 25.9275 22.2397 26.2301 21.9091C26.5326 21.5889 26.8895 21.3513 27.3007 21.1757C27.7118 21.0104 28.1618 20.9277 28.6428 20.9277C29.1238 20.9277 29.5815 21.0104 30.0004 21.1757C30.4271 21.341 30.7995 21.5889 31.1098 21.9091C31.4279 22.2397 31.6684 22.6426 31.8468 23.1385C32.0253 23.6343 32.1106 24.2128 32.1106 24.874V26.6509H31.6451C31.5676 26.6509 31.4667 26.6199 31.3503 26.5682C31.234 26.5166 31.1176 26.4442 31.009 26.3513C30.8926 26.2583 30.7995 26.1343 30.7142 25.9897C30.6288 25.8451 30.5901 25.6695 30.5901 25.4835V24.5124C30.5901 24.1612 30.528 23.8719 30.3961 23.6343C30.2642 23.3967 30.1091 23.2108 29.9151 23.0558C29.7289 22.9112 29.5194 22.7976 29.3022 22.7356C29.0772 22.6633 28.8755 22.6323 28.6893 22.6323C28.5109 22.6323 28.3092 22.6736 28.092 22.7356C27.8748 22.8079 27.673 22.9112 27.4869 23.0558C27.2929 23.2108 27.1377 23.3967 27.0059 23.6447C26.874 23.8823 26.8119 24.1819 26.8119 24.5021V37.2706C26.8119 37.6116 26.874 37.9111 27.0059 38.1487C27.1377 38.3967 27.2929 38.5826 27.4869 38.7376C27.673 38.8925 27.8748 38.9958 28.092 39.0682C28.3092 39.1405 28.5032 39.1715 28.6893 39.1715C28.86 39.1715 29.054 39.1405 29.279 39.0785C29.5039 39.0165 29.7134 38.9235 29.9073 38.7686C30.1013 38.6343 30.2642 38.4483 30.3961 38.2211C30.528 37.9938 30.5901 37.7149 30.5901 37.3533V32.9731C30.5901 32.7769 30.559 32.6529 30.497 32.5703C30.4349 32.5083 30.3651 32.4463 30.272 32.4153C30.0858 32.3636 29.9772 32.2397 29.9306 32.0434C29.8841 31.8471 29.8608 31.6095 29.8608 31.3099V30.6901H31.6451C31.7227 30.6901 31.8158 30.7211 31.9399 30.8037C32.0563 30.8864 32.1184 31.0413 32.1184 31.2893V36.093C32.1029 37.4463 32.1106 38.9235 32.1184 40.5558Z" fill="url(#paint3_linear_133_74)"/>
<path d="M37.1608 39.2231C37.2617 39.3264 37.3781 39.4813 37.5022 39.6673C37.6263 39.8636 37.6884 40.1218 37.6884 40.4524V40.7623H34.6938V40.4524C34.6938 40.1218 34.7559 39.8532 34.88 39.6569C35.0041 39.4607 35.1205 39.316 35.2213 39.2231C35.3377 39.1404 35.4075 38.9958 35.4153 38.8098V23.2107C35.3998 23.0764 35.3843 22.9835 35.3455 22.9215C35.3144 22.8698 35.2679 22.8182 35.2136 22.7665C35.1127 22.6839 34.9964 22.5392 34.8722 22.3326C34.7481 22.1364 34.686 21.8678 34.686 21.5372V21.2479H34.7481H37.6263H37.6884V21.5372C37.6884 21.8678 37.6263 22.1364 37.5022 22.3326C37.3781 22.5392 37.2617 22.6735 37.1608 22.7665C37.1143 22.8182 37.0677 22.8698 37.029 22.9215C36.9979 22.9731 36.9746 23.0661 36.9591 23.2107V38.7685C36.9591 38.9441 36.9746 39.0474 37.0134 39.0991C37.0445 39.1198 37.0988 39.1714 37.1608 39.2231Z" fill="url(#paint4_linear_133_74)"/>
<path d="M48.4327 21.2377V21.5269C48.4327 21.8575 48.3707 22.1261 48.2465 22.3224C48.1224 22.529 48.006 22.6633 47.9052 22.7563C47.8431 22.8079 47.7888 22.8699 47.7578 22.9525C47.7268 23.0249 47.7112 23.1488 47.7112 23.3038L47.688 40.3492C47.688 40.5248 47.6724 40.6384 47.6259 40.6901C47.5871 40.7417 47.494 40.7727 47.3544 40.7727H46.7027C46.6096 40.7727 46.5087 40.7624 46.4001 40.7314C46.2915 40.7107 46.1829 40.5558 46.0976 40.2769C46.0665 40.2045 46.0045 39.9669 45.8959 39.5434C45.7795 39.1302 45.6398 38.6033 45.4614 37.9835C45.283 37.3533 45.089 36.6508 44.8718 35.8657C44.6546 35.0909 44.4296 34.2851 44.2046 33.4794C43.9719 32.6632 43.7547 31.8885 43.5452 31.124C43.3357 30.3595 43.1495 29.6777 42.9866 29.0682C42.8237 28.469 42.6375 27.7976 42.428 27.0434C42.4048 26.9401 42.3892 26.9505 42.3892 27.0744V38.686C42.3892 38.8616 42.4048 38.9855 42.4358 39.0578C42.4668 39.1198 42.5211 39.1818 42.5832 39.2335C42.6841 39.3368 42.8004 39.4917 42.9168 39.6777C43.0332 39.874 43.0875 40.1322 43.0875 40.4628V40.7727H40.1084V40.4628C40.1084 40.1322 40.1705 39.874 40.2946 39.6777C40.4187 39.4814 40.5351 39.3368 40.6359 39.2335C40.698 39.1818 40.7523 39.1198 40.7833 39.0578C40.8144 38.9855 40.8299 38.8616 40.8299 38.686V22.9939C40.698 22.9422 40.5816 22.8596 40.473 22.7356C40.3799 22.6323 40.3023 22.4877 40.2403 22.3017C40.1782 22.1158 40.1394 21.8885 40.1394 21.5889V21.248H42.0557C42.3194 21.248 42.4901 21.434 42.5677 21.7955C42.5677 21.8265 42.6453 22.1468 42.8004 22.7253C42.9556 23.3038 43.1573 24.0372 43.3978 24.9153C43.6383 25.7934 43.9021 26.7542 44.1736 27.7976C44.4529 28.8409 44.7166 29.8327 44.9727 30.7624C45.2287 31.7025 45.4459 32.529 45.6399 33.2314C45.8338 33.9339 45.9502 34.3988 46.0045 34.6261C46.0355 34.688 46.0588 34.7294 46.0821 34.7294C46.1053 34.7294 46.1208 34.688 46.1208 34.6261L46.1364 23.2934C46.1364 23.1385 46.1208 23.0249 46.0898 22.9422C46.0588 22.8596 46.0045 22.7976 45.9424 22.7459C45.8338 22.6633 45.7252 22.529 45.6011 22.3534C45.4769 22.1778 45.4149 21.9298 45.4149 21.5992V21.2377H48.4327Z" fill="url(#paint5_linear_133_74)"/>
<path d="M58.2079 39.2541C58.3087 39.3367 58.4096 39.4814 58.5027 39.6673C58.5958 39.8636 58.6423 40.1012 58.6423 40.4008V40.7623H55.7796V40.3698C55.7796 40.0599 55.8339 39.8223 55.9426 39.6776C56.0589 39.533 56.1598 39.409 56.2684 39.3264C56.3848 39.2231 56.4468 39.0062 56.4468 38.6652C56.3925 38.221 56.3382 37.7975 56.2917 37.4152C56.2529 37.095 56.2141 36.7748 56.1831 36.4958C56.152 36.2066 56.1287 36.0206 56.1132 35.9277C56.09 35.721 56.0434 35.5971 55.9891 35.5661C55.927 35.5248 55.8417 35.5041 55.7253 35.5041H53.2117C52.979 35.5041 52.8549 35.6591 52.8394 35.9483C52.8238 36.0413 52.8083 36.2272 52.7773 36.5268C52.754 36.8161 52.723 37.126 52.6997 37.4359C52.6609 37.8181 52.6221 38.2314 52.5833 38.6652C52.5833 38.8409 52.5911 38.9648 52.6221 39.0371C52.6454 39.0991 52.692 39.1714 52.7618 39.2438C52.8549 39.3264 52.948 39.4607 53.0411 39.6053C53.1342 39.7603 53.173 39.9979 53.173 40.3078V40.752H50.3723V40.3078C50.3723 40.0185 50.4189 39.8016 50.512 39.657C50.5973 39.5227 50.6981 39.409 50.8068 39.3161C50.9154 39.2334 50.9774 39.1198 51.0162 38.9958C51.0473 38.8615 51.0783 38.7272 51.1016 38.5929C51.4662 35.7727 51.7998 33.252 52.1024 31.0206C52.2342 30.0806 52.3584 29.1508 52.4747 28.2417C52.5911 27.3223 52.6997 26.5062 52.8006 25.7934C52.9014 25.0806 52.979 24.5021 53.0333 24.0579C53.0876 23.6136 53.1186 23.3864 53.1186 23.3657C53.1342 23.2314 53.1497 23.1075 53.1574 23.0041C53.1652 22.9008 53.1109 22.8285 52.979 22.7665C52.8316 22.6839 52.7385 22.5496 52.6842 22.3843C52.6299 22.219 52.6066 21.9401 52.6066 21.5682V21.2273H54.709C55.0116 21.2273 55.2443 21.3513 55.4228 21.6095C55.6012 21.8678 55.7098 22.1467 55.7486 22.4566C55.7486 22.5186 55.7796 22.8079 55.8495 23.3037C55.9115 23.7996 55.9969 24.4298 56.1055 25.1942C56.2063 25.9587 56.3305 26.8264 56.4546 27.7872C56.5865 28.7479 56.7261 29.7293 56.8658 30.7211C57.1916 33.0661 57.564 35.7004 57.9674 38.6343C57.9907 38.7685 58.0217 38.8822 58.045 38.9752C58.0605 39.0785 58.1148 39.1611 58.2079 39.2541ZM55.5391 33.7996C55.64 33.7996 55.7176 33.7582 55.7641 33.6653C55.8107 33.5826 55.8262 33.4896 55.8107 33.3863C55.8107 33.3657 55.7952 33.2107 55.7564 32.9111C55.7176 32.6116 55.671 32.2396 55.609 31.7644C55.5547 31.2892 55.4848 30.7727 55.415 30.1839C55.3452 29.6054 55.2676 29.0062 55.19 28.3967C55.0038 26.9711 54.8021 25.3595 54.5849 23.5723C54.5849 23.562 54.5771 23.531 54.5616 23.5L54.4996 23.4277C54.4841 23.4277 54.4608 23.4484 54.422 23.5C54.4142 23.531 54.4065 23.562 54.4065 23.5723L53.7781 28.4277C53.7005 29.0372 53.6229 29.626 53.5453 30.2149C53.4678 30.7934 53.3979 31.3202 53.3359 31.7954C53.2738 32.2603 53.2273 32.6425 53.1885 32.9421C53.1497 33.2314 53.1264 33.3967 53.1264 33.407C53.1186 33.5206 53.1342 33.6033 53.173 33.6859C53.2195 33.7686 53.2893 33.7996 53.3824 33.7996H55.5391Z" fill="url(#paint6_linear_133_74)"/>
<path d="M67.6962 37.3223V40.2252C67.6962 40.4318 67.6574 40.5661 67.5876 40.6488C67.51 40.7211 67.4247 40.7624 67.3238 40.7624H66.8351H60.9778V40.5351C60.9778 39.8223 61.1174 39.3781 61.389 39.2025C61.451 39.1508 61.5519 39.0785 61.676 38.9959C61.8001 38.9029 61.8622 38.7996 61.8622 38.6756V23.3348V23.3038C61.8622 23.1488 61.8389 23.0352 61.8079 22.9525C61.7691 22.8699 61.7148 22.8079 61.6527 22.7563C61.5519 22.6736 61.4355 22.529 61.3114 22.3224C61.1872 22.1261 61.1252 21.8575 61.1252 21.5269V21.2377H64.1198V21.5269C64.1198 21.8575 64.0577 22.1261 63.9336 22.3224C63.8095 22.529 63.6931 22.6633 63.5922 22.7563C63.5302 22.8079 63.4759 22.8699 63.4371 22.9525C63.3983 23.0249 63.375 23.1488 63.375 23.3038V23.3348V38.7066C63.375 38.9442 63.4448 39.0682 63.5922 39.0682H66.2144C66.3075 39.0682 66.3618 39.0475 66.3773 38.9959C66.4006 38.9442 66.4084 38.8616 66.4084 38.7376C66.4084 38.3037 66.5092 37.9525 66.7265 37.7046C66.9359 37.4463 67.1842 37.3223 67.4712 37.3223H67.6962Z" fill="url(#paint7_linear_133_74)"/>
<path d="M91.0024 39.2224C91.1033 39.3258 91.2197 39.4807 91.3438 39.6667C91.4679 39.8629 91.53 40.1212 91.53 40.4518V40.7617H88.5354V40.4518C88.5354 40.1212 88.5975 39.8526 88.7216 39.6563C88.8457 39.4601 88.9543 39.3154 89.0629 39.2224C89.1793 39.1398 89.2491 38.9952 89.2647 38.8092V23.2101C89.2491 23.0758 89.2259 22.9828 89.1948 22.9209C89.1638 22.8692 89.1172 22.8176 89.0629 22.7659C88.9621 22.6833 88.8457 22.5386 88.7216 22.332C88.5975 22.1357 88.5354 21.8671 88.5354 21.5366V21.2473H88.5897H91.4757H91.53V21.5366C91.53 21.8671 91.4679 22.1357 91.3438 22.332C91.2197 22.5386 91.1033 22.6729 91.0024 22.7659C90.9559 22.8176 90.9094 22.8692 90.8783 22.9209C90.8473 22.9725 90.824 23.0655 90.8085 23.2101V38.7679C90.8085 38.9435 90.824 39.0468 90.8628 39.0985C90.8861 39.1191 90.9404 39.1708 91.0024 39.2224Z" fill="url(#paint8_linear_133_74)"/>
<path d="M101.755 21.4237C101.879 21.5477 101.941 21.806 101.941 22.1779V23.1489V24.6159H101.545C101.452 24.6159 101.351 24.5849 101.243 24.5332C101.134 24.4816 101.025 24.4093 100.94 24.306C100.847 24.2027 100.769 24.058 100.7 23.8824C100.638 23.7068 100.607 23.5002 100.607 23.2626C100.607 23.087 100.544 23.0043 100.413 23.0043H99.1015C99.0084 23.0043 98.9385 23.025 98.8842 23.0663C98.8299 23.1076 98.8067 23.2006 98.8067 23.3452V38.5311V38.7171C98.8067 38.872 98.8222 38.9857 98.861 39.058C98.892 39.12 98.9385 39.1923 99.0084 39.2646C99.1092 39.3472 99.2256 39.4919 99.3497 39.6778C99.4738 39.8741 99.5359 40.1427 99.5359 40.4836V40.7728H96.5568V40.4836C96.5568 40.1427 96.6189 39.8741 96.7353 39.6778C96.8594 39.4815 96.9603 39.3472 97.0689 39.2646C97.1309 39.1923 97.1852 39.1303 97.224 39.058C97.2628 38.9857 97.2783 38.872 97.2783 38.7171V38.6861V23.2006C97.2783 23.0663 97.2473 22.9733 97.1775 22.932C97.1154 22.901 97.0456 22.8907 96.9835 22.8907H95.7655C95.719 22.8907 95.6569 22.901 95.5871 22.9217C95.525 22.9527 95.494 23.0353 95.494 23.1799C95.494 23.3142 95.4707 23.4692 95.4242 23.6345C95.3776 23.7998 95.3078 23.9547 95.2225 24.089C95.1371 24.2233 95.0363 24.3473 94.8966 24.4403C94.7648 24.5332 94.6251 24.5849 94.4622 24.5849H94.1519V23.0146V22.0746C94.1519 21.775 94.2062 21.5684 94.3225 21.4341C94.4389 21.2998 94.6484 21.2378 94.9509 21.2378H101.227C101.46 21.2378 101.631 21.2998 101.755 21.4237Z" fill="url(#paint9_linear_133_74)"/>
<path d="M110.544 39.2541C110.645 39.3367 110.746 39.4814 110.831 39.6673C110.925 39.8636 110.971 40.1012 110.971 40.4008V40.7623H108.108V40.3698C108.108 40.0599 108.163 39.8223 108.271 39.6776C108.38 39.533 108.489 39.409 108.597 39.3264C108.714 39.2231 108.768 39.0062 108.768 38.6652C108.721 38.221 108.667 37.7975 108.613 37.4152C108.574 37.095 108.535 36.7748 108.504 36.4958C108.473 36.2066 108.45 36.0206 108.434 35.9277C108.411 35.721 108.372 35.5971 108.31 35.5661C108.248 35.5248 108.163 35.5041 108.046 35.5041H105.533C105.3 35.5041 105.176 35.6591 105.16 35.9483C105.145 36.0413 105.129 36.2272 105.098 36.5268C105.075 36.8161 105.044 37.126 105.021 37.4359C104.982 37.8181 104.943 38.2314 104.904 38.6652C104.904 38.8409 104.912 38.9648 104.943 39.0371C104.974 39.0991 105.013 39.1714 105.083 39.2438C105.176 39.3264 105.261 39.4607 105.354 39.6053C105.447 39.7603 105.494 39.9979 105.494 40.3078V40.752H102.693V40.3078C102.693 40.0185 102.74 39.8016 102.825 39.657C102.918 39.5227 103.019 39.409 103.12 39.3161C103.221 39.2334 103.291 39.1198 103.33 38.9958C103.361 38.8615 103.392 38.7272 103.415 38.5929C103.779 35.7727 104.113 33.252 104.416 31.0206C104.548 30.0806 104.672 29.1508 104.788 28.2417C104.912 27.3223 105.013 26.5062 105.114 25.7934C105.215 25.0806 105.285 24.5021 105.347 24.0579C105.401 23.6136 105.432 23.3864 105.432 23.3657C105.447 23.2314 105.455 23.1075 105.471 23.0041C105.486 22.9008 105.424 22.8285 105.292 22.7665C105.145 22.6839 105.052 22.5496 104.997 22.3843C104.943 22.219 104.92 21.9401 104.92 21.5682V21.2273H107.022C107.325 21.2273 107.558 21.3513 107.736 21.6095C107.907 21.8678 108.023 22.1467 108.062 22.4566C108.062 22.5186 108.093 22.8079 108.163 23.3037C108.225 23.7996 108.31 24.4298 108.419 25.1942C108.52 25.9587 108.644 26.8264 108.768 27.7872C108.9 28.7479 109.039 29.7293 109.179 30.7211C109.505 33.0661 109.869 35.7004 110.273 38.6343C110.296 38.7685 110.327 38.8822 110.35 38.9752C110.397 39.0785 110.451 39.1611 110.544 39.2541ZM107.876 33.7996C107.977 33.7996 108.062 33.7582 108.101 33.6653C108.147 33.5826 108.163 33.4896 108.147 33.3863C108.147 33.3657 108.124 33.2107 108.093 32.9111C108.054 32.6116 108 32.2396 107.946 31.7644C107.891 31.2892 107.821 30.7727 107.752 30.1839C107.674 29.6054 107.604 29.0062 107.527 28.3967C107.34 26.9711 107.139 25.3595 106.921 23.5723C106.921 23.562 106.914 23.531 106.898 23.5L106.836 23.4277C106.828 23.4277 106.805 23.4484 106.759 23.5C106.751 23.531 106.743 23.562 106.743 23.5723L106.115 28.4277C106.037 29.0372 105.959 29.626 105.882 30.2149C105.804 30.7934 105.734 31.3202 105.68 31.7954C105.618 32.2603 105.572 32.6425 105.533 32.9421C105.494 33.2314 105.471 33.3967 105.471 33.407C105.463 33.5206 105.478 33.6033 105.517 33.6859C105.564 33.7686 105.634 33.7996 105.727 33.7996H107.876Z" fill="url(#paint10_linear_133_74)"/>
<path d="M120.033 37.3224V40.2253C120.033 40.4319 119.994 40.5662 119.924 40.6489C119.847 40.7212 119.769 40.7625 119.66 40.7625H119.172H113.307V40.5352C113.307 39.8224 113.446 39.3782 113.718 39.2026C113.78 39.151 113.881 39.0786 114.005 38.996C114.129 38.903 114.191 38.7997 114.191 38.6757V23.3349V23.3039C114.191 23.1489 114.176 23.0353 114.137 22.9527C114.098 22.87 114.044 22.808 113.982 22.7564C113.881 22.6737 113.764 22.5291 113.64 22.3225C113.516 22.1262 113.454 21.8576 113.454 21.5271V21.2378H116.449V21.5271C116.449 21.8576 116.387 22.1262 116.262 22.3225C116.146 22.5291 116.03 22.6634 115.921 22.7564C115.859 22.808 115.805 22.87 115.766 22.9527C115.719 23.025 115.704 23.1489 115.704 23.3039V23.3349V38.7067C115.704 38.9443 115.781 39.0683 115.921 39.0683H118.543C118.636 39.0683 118.691 39.0476 118.706 38.996C118.722 38.9443 118.737 38.8617 118.737 38.7377C118.737 38.3038 118.838 37.9526 119.048 37.7047C119.257 37.4464 119.505 37.3224 119.792 37.3224H120.033Z" fill="url(#paint11_linear_133_74)"/>
<path d="M125.029 39.2232C125.13 39.3265 125.246 39.4814 125.37 39.6674C125.495 39.8637 125.557 40.1219 125.557 40.4525V40.7624H122.562V40.4525C122.562 40.1219 122.624 39.8533 122.748 39.6571C122.872 39.4608 122.981 39.3162 123.09 39.2232C123.206 39.1405 123.276 38.9959 123.284 38.81V23.2108C123.276 23.0765 123.245 22.9836 123.221 22.9216C123.19 22.8699 123.144 22.8183 123.09 22.7666C122.989 22.684 122.872 22.5394 122.748 22.3328C122.624 22.1365 122.562 21.8679 122.562 21.5373V21.248H122.616H125.495H125.549V21.5373C125.549 21.8679 125.495 22.1365 125.363 22.3328C125.239 22.5394 125.122 22.6737 125.021 22.7666C124.967 22.8183 124.928 22.8699 124.889 22.9216C124.858 22.9732 124.835 23.0662 124.82 23.2108V38.7686C124.82 38.9443 124.835 39.0476 124.874 39.0992C124.913 39.1199 124.967 39.1715 125.029 39.2232Z" fill="url(#paint12_linear_133_74)"/>
<path d="M135.929 39.2541C136.03 39.3367 136.131 39.4814 136.224 39.6673C136.317 39.8636 136.364 40.1012 136.364 40.4008V40.7623H133.501V40.3698C133.501 40.0599 133.555 39.8223 133.664 39.6776C133.78 39.533 133.881 39.409 133.99 39.3264C134.106 39.2231 134.168 39.0062 134.168 38.6652C134.114 38.221 134.059 37.7975 134.013 37.4152C133.974 37.095 133.935 36.7748 133.904 36.4958C133.873 36.2066 133.85 36.0206 133.834 35.9277C133.803 35.721 133.765 35.5971 133.71 35.5661C133.656 35.5248 133.563 35.5041 133.447 35.5041H130.941C130.708 35.5041 130.584 35.6591 130.568 35.9483C130.553 36.0413 130.537 36.2272 130.506 36.5268C130.483 36.8161 130.452 37.126 130.429 37.4359C130.382 37.8181 130.351 38.2314 130.312 38.6652C130.312 38.8409 130.32 38.9648 130.351 39.0371C130.374 39.0991 130.421 39.1714 130.483 39.2438C130.576 39.3264 130.669 39.4607 130.754 39.6053C130.84 39.7603 130.894 39.9979 130.894 40.3078V40.752H128.094V40.3078C128.094 40.0185 128.14 39.8016 128.233 39.657C128.326 39.5227 128.419 39.409 128.528 39.3161C128.637 39.2334 128.706 39.1198 128.737 38.9958C128.768 38.8615 128.799 38.7272 128.823 38.5929C129.195 35.7727 129.521 33.252 129.824 31.0206C129.955 30.0806 130.087 29.1508 130.196 28.2417C130.312 27.3223 130.421 26.5062 130.522 25.7934C130.615 25.0806 130.692 24.5021 130.754 24.0579C130.809 23.6136 130.848 23.3864 130.848 23.3657C130.855 23.2314 130.871 23.1075 130.886 23.0041C130.894 22.9008 130.84 22.8285 130.708 22.7665C130.561 22.6839 130.467 22.5496 130.413 22.3843C130.359 22.219 130.336 21.9401 130.336 21.5682V21.2273H132.43C132.733 21.2273 132.973 21.3513 133.144 21.6095C133.322 21.8678 133.431 22.1467 133.47 22.4566C133.47 22.5186 133.509 22.8079 133.571 23.3037C133.633 23.7996 133.718 24.4298 133.827 25.1942C133.928 25.9587 134.044 26.8264 134.184 27.7872C134.308 28.7479 134.447 29.7293 134.595 30.7211C134.921 33.0661 135.285 35.7004 135.696 38.6343C135.72 38.7685 135.743 38.8822 135.774 38.9752C135.782 39.0785 135.836 39.1611 135.929 39.2541ZM133.26 33.7996C133.361 33.7996 133.439 33.7582 133.485 33.6653C133.532 33.5826 133.547 33.4896 133.532 33.3863C133.532 33.3657 133.516 33.2107 133.478 32.9111C133.439 32.6116 133.392 32.2396 133.33 31.7644C133.276 31.2892 133.206 30.7727 133.136 30.1839C133.066 29.6054 132.989 29.0062 132.911 28.3967C132.725 26.9711 132.523 25.3595 132.306 23.5723C132.306 23.562 132.298 23.531 132.291 23.5L132.229 23.4277C132.213 23.4277 132.19 23.4484 132.151 23.5C132.135 23.531 132.128 23.562 132.128 23.5723L131.499 28.4277C131.422 29.0372 131.344 29.626 131.267 30.2149C131.189 30.7934 131.119 31.3202 131.065 31.7954C131.003 32.2603 130.956 32.6425 130.917 32.9421C130.879 33.2314 130.855 33.3967 130.855 33.407C130.848 33.5206 130.863 33.6033 130.902 33.6859C130.948 33.7686 131.018 33.7996 131.111 33.7996H133.26Z" fill="url(#paint13_linear_133_74)"/>
<path d="M146.999 21.2378V21.5271C146.999 21.8576 146.937 22.1262 146.813 22.3225C146.689 22.5291 146.573 22.6634 146.472 22.7564C146.41 22.808 146.356 22.87 146.325 22.9527C146.294 23.025 146.278 23.1489 146.278 23.3039L146.255 40.3493C146.255 40.5249 146.239 40.6385 146.2 40.6902C146.162 40.7419 146.069 40.7728 145.929 40.7728H145.277C145.184 40.7728 145.083 40.7625 144.975 40.7315C144.866 40.7109 144.765 40.5559 144.672 40.277C144.649 40.2047 144.579 39.9671 144.47 39.5435C144.362 39.1303 144.214 38.6034 144.036 37.9836C143.858 37.3534 143.664 36.651 143.446 35.8658C143.229 35.091 143.012 34.2853 142.779 33.4795C142.546 32.6634 142.337 31.8886 142.12 31.1241C141.91 30.3597 141.724 29.6778 141.561 29.0683C141.398 28.4692 141.212 27.7977 141.003 27.0436C140.979 26.9403 140.964 26.9506 140.964 27.0745V38.6861C140.964 38.8617 140.979 38.9857 141.01 39.058C141.041 39.12 141.096 39.1819 141.158 39.2336C141.259 39.3369 141.375 39.4919 141.491 39.6778C141.608 39.8741 141.67 40.1323 141.67 40.4629V40.7728H138.691V40.4629C138.691 40.1323 138.753 39.8741 138.877 39.6778C139.001 39.4815 139.117 39.3369 139.218 39.2336C139.28 39.1819 139.327 39.12 139.366 39.058C139.404 38.9857 139.412 38.8617 139.412 38.6861V22.994C139.28 22.9423 139.164 22.8597 139.063 22.7357C138.97 22.6324 138.892 22.4878 138.83 22.3018C138.768 22.1159 138.737 21.8886 138.737 21.589V21.2481H140.653C140.917 21.2481 141.088 21.4341 141.165 21.7956C141.165 21.8266 141.243 22.1469 141.398 22.7254C141.553 23.3039 141.755 24.0374 141.996 24.9155C142.236 25.7936 142.5 26.7543 142.771 27.7977C143.051 28.8411 143.314 29.8328 143.57 30.7626C143.826 31.7026 144.044 32.5291 144.238 33.2315C144.424 33.934 144.548 34.3989 144.602 34.6262C144.626 34.6882 144.657 34.7295 144.68 34.7295C144.703 34.7295 144.719 34.6882 144.719 34.6262L144.742 23.2936C144.742 23.1386 144.726 23.025 144.695 22.9423C144.664 22.8597 144.618 22.7977 144.548 22.7461C144.447 22.6634 144.331 22.5291 144.207 22.3535C144.082 22.1779 144.02 21.9299 144.02 21.5994V21.2378H146.999Z" fill="url(#paint14_linear_133_74)"/>
<defs>
<linearGradient id="paint0_linear_133_74" x1="3.398" y1="21" x2="-5.59657" y2="36.9796" gradientUnits="userSpaceOnUse">
<stop stop-color="#FF941D"/>
<stop offset="1" stop-color="#FBAE1F"/>
</linearGradient>
<linearGradient id="paint1_linear_133_74" x1="13.2155" y1="21.2377" x2="5.132" y2="37.8458" gradientUnits="userSpaceOnUse">
<stop stop-color="#FF941D"/>
<stop offset="1" stop-color="#FBAE1F"/>
</linearGradient>
<linearGradient id="paint2_linear_133_74" x1="21.1755" y1="21.2479" x2="11.1482" y2="29.3138" gradientUnits="userSpaceOnUse">
<stop stop-color="#FF941D"/>
<stop offset="1" stop-color="#FBAE1F"/>
</linearGradient>
<linearGradient id="paint3_linear_133_74" x1="28.6932" y1="20.9277" x2="19.743" y2="36.9639" gradientUnits="userSpaceOnUse">
<stop stop-color="#FF941D"/>
<stop offset="1" stop-color="#FBAE1F"/>
</linearGradient>
<linearGradient id="paint4_linear_133_74" x1="36.1872" y1="21.2479" x2="26.1599" y2="29.3138" gradientUnits="userSpaceOnUse">
<stop stop-color="#FF941D"/>
<stop offset="1" stop-color="#FBAE1F"/>
</linearGradient>
<linearGradient id="paint5_linear_133_74" x1="44.2706" y1="21.2377" x2="36.5921" y2="38.3445" gradientUnits="userSpaceOnUse">
<stop stop-color="#FF941D"/>
<stop offset="1" stop-color="#FBAE1F"/>
</linearGradient>
<linearGradient id="paint6_linear_133_74" x1="54.5073" y1="21.2273" x2="46.7955" y2="38.2964" gradientUnits="userSpaceOnUse">
<stop stop-color="#FF941D"/>
<stop offset="1" stop-color="#FBAE1F"/>
</linearGradient>
<linearGradient id="paint7_linear_133_74" x1="64.337" y1="21.2377" x2="55.6137" y2="36.9313" gradientUnits="userSpaceOnUse">
<stop stop-color="#FF941D"/>
<stop offset="1" stop-color="#FBAE1F"/>
</linearGradient>
<linearGradient id="paint8_linear_133_74" x1="90.0327" y1="21.2473" x2="80.011" y2="29.2878" gradientUnits="userSpaceOnUse">
<stop stop-color="#FF941D"/>
<stop offset="1" stop-color="#FBAE1F"/>
</linearGradient>
<linearGradient id="paint9_linear_133_74" x1="98.0464" y1="21.2378" x2="90.0313" y2="37.9463" gradientUnits="userSpaceOnUse">
<stop stop-color="#FF941D"/>
<stop offset="1" stop-color="#FBAE1F"/>
</linearGradient>
<linearGradient id="paint10_linear_133_74" x1="106.832" y1="21.2273" x2="99.1252" y2="38.3018" gradientUnits="userSpaceOnUse">
<stop stop-color="#FF941D"/>
<stop offset="1" stop-color="#FBAE1F"/>
</linearGradient>
<linearGradient id="paint11_linear_133_74" x1="116.67" y1="21.2378" x2="107.952" y2="36.94" gradientUnits="userSpaceOnUse">
<stop stop-color="#FF941D"/>
<stop offset="1" stop-color="#FBAE1F"/>
</linearGradient>
<linearGradient id="paint12_linear_133_74" x1="124.059" y1="21.248" x2="114.038" y2="29.2886" gradientUnits="userSpaceOnUse">
<stop stop-color="#FF941D"/>
<stop offset="1" stop-color="#FBAE1F"/>
</linearGradient>
<linearGradient id="paint13_linear_133_74" x1="132.229" y1="21.2273" x2="124.517" y2="38.2964" gradientUnits="userSpaceOnUse">
<stop stop-color="#FF941D"/>
<stop offset="1" stop-color="#FBAE1F"/>
</linearGradient>
<linearGradient id="paint14_linear_133_74" x1="142.845" y1="21.2378" x2="135.157" y2="38.3339" gradientUnits="userSpaceOnUse">
<stop stop-color="#FF941D"/>
<stop offset="1" stop-color="#FBAE1F"/>
</linearGradient>
<clipPath id="clip0_133_74">
<rect width="22.4599" height="22.4599" fill="white" transform="translate(71.4866) rotate(28.8726)"/>
</clipPath>
</defs>
</svg>
